# xmcd
#
# Track frame offsets:
#	150
#	10672
#	26315
#	39997
#	50142
#	64082
#	76102
#	92792
#	106515
#	121637
#	137902
#	147807
#	163660
#	178785
#	195095
#
# Disc length: 2795 seconds
#
# Revision: 1
# Processed by: cddbd v1.5.2PL0 Copyright (c) Steve Scherf et al.
# Submitted via: EasyCDDAExtractor 8.2.3.1
#
DISCID=b00ae90f
DTITLE=Mick Flavin - Country All The Way
DYEAR=1998
DGENRE=Country
TTITLE0=California Okie
TTITLE1=She's Got The Way
TTITLE2=The Writing On The Wall
TTITLE3=I'll Be There
TTITLE4=Cotton Jenny
TTITLE5=The Family Tree
TTITLE6=In  My Father's House
TTITLE7=Flowers In The Snow
TTITLE8=I Met A Friend Of Yours Today
TTITLE9=What We Love To Do
TTITLE10=Lovin' Understanding Man
TTITLE11=I Sleep Just Like A Baby
TTITLE12=The Old Man On The Porch
TTITLE13=You Beat All  I've Ever Seen
TTITLE14=I Won't Be In Atlanta Anymore
EXTD=
EXTT0=
EXTT1=
EXTT2=
EXTT3=
EXTT4=
EXTT5=
EXTT6=
EXTT7=
EXTT8=
EXTT9=
EXTT10=
EXTT11=
EXTT12=
EXTT13=
EXTT14=
PLAYORDER=
